HIERARCHY
ROOT hip
{
	OFFSET 0.000000 0.000000 0.000000
	CHANNELS 6 Xposition Yposition Zposition Xrotation Zrotation Yrotation 
	JOINT abdomen
	{
		OFFSET 0.000000 3.422050 0.000000
		CHANNELS 3 Xrotation Zrotation Yrotation 
		JOINT chest
		{
			OFFSET 0.000000 8.486693 -0.684411
			CHANNELS 3 Xrotation Zrotation Yrotation 
			JOINT neck
			{
				OFFSET 0.000000 10.266162 -0.273764
				CHANNELS 3 Xrotation Zrotation Yrotation 
				JOINT head
				{
					OFFSET 0.000000 3.148285 0.000000
					CHANNELS 3 Xrotation Zrotation Yrotation 
					End Site
					{
						OFFSET 0.000000 3.148289 0.000000
					}
				}
			}
			JOINT lCollar
			{
				OFFSET 3.422053 6.707223 -0.821293
				CHANNELS 3 Yrotation Zrotation Xrotation 
				JOINT lShldr
				{
					OFFSET 3.285171 0.000000 0.000000
					CHANNELS 3 Zrotation Yrotation Xrotation 
					JOINT lForeArm
					{
						OFFSET 10.129278 0.000000 0.000000
						CHANNELS 3 Yrotation Zrotation Xrotation 
						JOINT lHand
						{
							OFFSET 8.486692 0.000000 0.000000
							CHANNELS 3 Zrotation Yrotation Xrotation 
							End Site
							{
								OFFSET 4.106464 0.000000 0.000000
							}
						}
					}
				}
			}
			JOINT rCollar
			{
				OFFSET -3.558935 6.707223 -0.821293
				CHANNELS 3 Yrotation Zrotation Xrotation 
				JOINT rShldr
				{
					OFFSET -3.148289 0.000000 0.000000
					CHANNELS 3 Zrotation Yrotation Xrotation 
					JOINT rForeArm
					{
						OFFSET -10.266159 0.000000 0.000000
						CHANNELS 3 Yrotation Zrotation Xrotation 
						JOINT rHand
						{
							OFFSET -8.349810 0.000000 0.000000
							CHANNELS 3 Zrotation Yrotation Xrotation 
							End Site
							{
								OFFSET -4.106464 0.000000 0.000000
							}
						}
					}
				}
			}
		}
	}
	JOINT lThigh
	{
		OFFSET 5.338403 -1.642589 1.368821
		CHANNELS 3 Xrotation Zrotation Yrotation 
		JOINT lShin
		{
			OFFSET -2.053232 -20.121670 0.000000
			CHANNELS 3 Xrotation Zrotation Yrotation 
			JOINT lFoot
			{
				OFFSET 0.000000 -19.300380 -1.231939
				CHANNELS 3 Xrotation Yrotation Zrotation 
				End Site
				{
					OFFSET 0.000000 -2.463878 4.653993
				}
			}
		}
	}
	JOINT rThigh
	{
		OFFSET -5.338403 -1.642589 1.368821
		CHANNELS 3 Xrotation Zrotation Yrotation 
		JOINT rShin
		{
			OFFSET 2.053232 -20.121670 0.000000
			CHANNELS 3 Xrotation Zrotation Yrotation 
			JOINT rFoot
			{
				OFFSET 0.000000 -19.300380 -1.231939
				CHANNELS 3 Xrotation Yrotation Zrotation 
				End Site
				{
					OFFSET 0.000000 -2.463878 4.653993
				}
			}
		}
	}
}
MOTION
Frames: 6
Frame Time: 0.062500
0.000000 43.528500 0.000000 0.000000 0.000000 0.000000 0.000000 0.000000 0.000000 0.000000 0.000000 0.000000 0.000000 0.000000 0.000000 0.000000 0.000000 0.000000 0.000000 0.000000 0.000000 0.000000 0.000000 0.000000 0.000000 0.000000 0.000000 0.000000 0.000000 0.000000 0.000000 0.000000 0.000000 0.000000 0.000000 0.000000 0.000000 0.000000 0.000000 0.000000 0.000000 0.000000 0.000000 0.000000 0.000000 0.000000 0.000000 0.000000 0.000000 0.000000 0.000000 0.000000 0.000000 0.000000 0.000000 0.000000 0.000000 0.000000 0.000000 0.000000 
0.000000 5.263874 0.000000 -105.007423 0.000000 0.000000 13.631392 -0.939176 -0.850146 17.402430 -0.135570 -1.136948 0.682881 0.946597 -0.101025 20.993229 0.000000 0.000000 -11.268732 3.552959 -13.030864 -83.001442 14.998969 29.998976 -0.003099 -5.002736 -20.003355 -4.352801 -28.645384 -15.055467 23.920612 14.451625 -16.171768 61.338520 15.931973 21.371964 19.439230 19.908213 -45.695709 27.997765 -9.001063 18.998718 -36.938366 11.212067 0.516663 127.349327 4.850333 -0.321730 7.689965 0.579701 3.745419 -27.027746 -11.319268 -1.432827 111.910248 -3.523914 1.116946 8.752738 -0.604812 -3.523054 
0.000000 5.263874 0.000000 -105.007423 0.000000 0.000000 14.015802 -0.939213 -0.850174 16.634155 -0.135539 -1.136828 0.298472 0.946578 -0.100977 20.531963 0.000000 0.000000 -11.251503 3.259817 -12.713673 -83.001442 14.998973 29.998980 -0.003099 -5.002736 -20.003355 -2.114332 -27.995955 -15.222127 23.827576 14.643526 -15.812120 61.318127 16.294973 21.364971 19.439230 19.908215 -45.695713 28.374813 -8.607761 19.214777 -36.918716 11.713504 0.778601 127.349327 4.850333 -0.321730 7.654148 0.409231 4.286307 -27.002457 -11.653722 -1.664762 111.910263 -3.523914 1.116946 8.725724 -0.434048 -3.895456 
0.000000 5.263874 0.000000 -105.007431 0.000000 0.000000 14.400252 -0.939249 -0.850201 15.865503 -0.135507 -1.136709 -0.085986 0.946559 -0.100930 20.070621 0.000000 0.000000 -11.232655 2.966729 -12.396434 -83.001442 14.998969 29.998976 -0.003099 -5.002735 -20.003351 0.118337 -27.338451 -15.359651 23.733200 14.834883 -15.451783 61.297634 16.658012 21.357832 19.439230 19.908211 -45.695709 28.753092 -8.215755 19.433296 -36.896694 12.214984 1.041271 127.349327 4.850333 -0.321730 7.619929 0.238384 4.827225 -26.975748 -11.988118 -1.897164 111.910248 -3.523914 1.116946 8.699815 -0.263088 -4.267822 
0.000000 5.263874 0.000000 -105.007423 0.000000 0.000000 14.784747 -0.939285 -0.850229 15.096540 -0.135473 -1.136590 -0.470482 0.946540 -0.100882 19.609200 0.000000 0.000000 -11.212179 2.673712 -12.079134 -83.001442 14.998969 29.998976 -0.003099 -5.002736 -20.003355 2.344080 -26.674332 -15.467927 23.637489 15.025682 -15.090763 61.277058 17.021080 21.350542 19.439230 19.908213 -45.695709 29.132605 -7.825084 19.654264 -36.872253 12.716468 1.304705 127.349327 4.850333 -0.321730 7.587320 0.067184 5.368156 -26.947611 -12.322442 -2.130043 111.910248 -3.523914 1.116946 8.675015 -0.091943 -4.640152 
0.000000 5.263874 0.000000 -105.007423 0.000000 0.000000 15.169270 -0.939320 -0.850257 14.327336 -0.135437 -1.136472 -0.855009 0.946522 -0.100834 19.147738 0.000000 0.000000 -11.190085 2.380784 -11.761772 -83.001442 14.998969 29.998976 -0.003099 -5.002736 -20.003357 4.561806 -26.005114 -15.546985 23.540430 15.215908 -14.729055 61.256382 17.384169 21.343098 19.439230 19.908213 -45.695709 29.513378 -7.435802 19.877689 -36.845387 13.217920 1.568936 127.349327 4.850333 -0.321730 7.556322 -0.104345 5.909084 -26.918043 -12.656679 -2.363412 111.910248 -3.523914 1.116946 8.651326 0.079375 -5.012439 
